PathFileType	4	(X/Y/Z)	C:\Users\°ÂÌØÂü\Desktop\20210112\bx_n_10_902-Unnamed.trc
DataRate	CameraRate	NumFrames	NumMarkers	Units	OrigDataRate	OrigDataStartFrame	OrigNumFrames
50.00	50.00	       7	0	mm	50.00	424	       484
Frame#	Time	
		

424	8.460	-750.19855	83.84325	1839.35571	-665.99115	201.04625	534.36731	-673.19635	172.51521	158.19872	-669.74615	53.02309	161.20023	-567.17572	-12.09019	802.33636	-681.28015	267.19690	1546.23145	-714.75775	243.15216	645.11743	-718.34601	241.10889	578.39856	-760.06262	252.15074	505.76013	-517.51001	-73.05743	143.18465	-682.90051	-90.88790	1537.46643	-596.05695	25.05213	168.85005	-569.09143	206.47551	814.53583	-710.51819	152.80408	216.59879	-794.44391	178.61417	183.71790	-766.11780	227.28380	206.12535	-590.04968	218.82819	173.24489	-882.53638	296.09531	144.59125	-554.23682	256.41605	164.29857	-653.41541	8.43313	518.82001	-622.40240	306.23761	158.75066	-527.96387	304.14023	146.50595	-658.18640	297.83673	158.90312				-790.63239	39.67552	173.49655	-749.67023	-52.44662	489.31635	-548.85504	-30.45868	163.61292	-757.05505	-20.48799	206.21336	-875.86865	-78.72662	141.20197	-714.30530	68.72390	219.01736	-661.96204	-71.38632	758.41296	-692.43976	-45.48537	618.74188	-702.92090	-41.90560	568.57861	-585.01788	86.39336	1353.82446	-607.03235	-76.45416	156.80804	-649.07489	-68.72496	160.51776	-568.87646	-19.45417	1054.27576	-587.42993	229.72508	1067.89221	-672.45886	271.92929	876.24316	-682.93066	260.39505	746.58167	-678.91681	138.39320	575.62909	-681.47430	63.80563	576.28516	-634.83539	-84.96863	871.62488	-777.38245	76.50534	1051.39221	
425	8.480	-751.77667	83.96738	1838.98706	-664.98328	201.13141	534.36572	-673.58905	172.89397	158.04495	-669.74841	53.08056	161.39058	-566.70447	-11.99852	802.23676	-682.18091	267.46552	1546.10095	-714.16937	243.12886	644.89435	-717.72052	241.21227	578.41840	-759.24615	252.00056	505.77701	-517.51001	-73.05743	143.18465	-683.45197	-90.42827	1537.38635	-596.11127	25.02726	168.65076	-568.39551	206.94185	814.64819	-710.29504	152.93559	216.75795	-794.46454	178.62747	183.75119	-765.99451	227.36443	206.27054	-590.16876	218.84036	173.26314	-882.37628	296.02225	144.68523	-554.15973	256.36139	164.31902	-652.52252	8.90464	518.85480	-622.42322	306.28754	158.70030	-528.04291	304.53448	146.75201	-658.34509	297.84329	158.95323				-790.64935	39.75524	173.54352	-748.92377	-52.34779	489.13922	-548.78070	-30.56697	163.55956	-756.85944	-20.26858	206.43977	-875.87335	-78.57735	141.34627	-714.30530	68.72390	219.01736	-661.00549	-71.37195	758.34259	-691.52777	-45.23236	618.63635	-702.53418	-41.97310	568.43121	-584.98041	86.90488	1353.53540	-606.78027	-76.43134	156.83110	-649.11572	-68.80472	160.66563	-567.97363	-18.82339	1054.38098	-586.74420	230.13010	1067.62769	-672.00165	272.44144	876.13629	-682.18311	260.47369	746.39587	-678.34174	138.59785	575.36652	-681.24994	64.11123	576.45258	-633.66797	-84.93907	871.61938	-776.43481	76.63616	1051.20032	
426	8.500	-752.84869	84.00119	1838.68091	-664.87048	201.32603	534.38458	-673.39691	172.64349	158.22052	-669.74615	53.02309	161.20023	-565.59912	-11.59617	802.17297	-683.17059	267.88647	1546.02039	-713.50751	243.00662	644.76849	-717.49927	241.38905	578.73340	-758.95013	252.00264	505.68771	-517.62933	-73.02656	143.23486	-683.87970	-90.05316	1537.18567	-596.00018	24.96341	168.84497	-567.96381	207.21544	814.27435	-710.48877	152.72304	216.60217	-794.47485	178.64767	183.74136	-766.07245	227.32890	206.36092	-590.11377	218.78555	173.23352	-882.48492	296.28201	144.80209	-554.31750	256.46201	164.18456	-652.13696	9.00012	518.83405	-622.42322	306.28754	158.70030	-527.91608	304.27734	146.74899	-658.40973	297.82526	158.88948				-790.61316	39.87722	173.17250	-748.48669	-52.00213	489.36856	-548.91919	-30.38068	163.54044	-756.89905	-20.17602	206.54340	-875.99792	-78.69180	141.55168	-714.30530	68.72390	219.01736	-660.29614	-71.28125	758.18768	-690.93176	-45.33505	619.08252	-701.87793	-41.69267	568.58655	-585.04846	87.20600	1353.55066	-607.05798	-76.47710	156.75897	-649.11572	-68.80472	160.66563	-567.15289	-18.73415	1054.20056	-585.96545	230.37790	1067.72412	-670.61005	272.82556	876.25922	-681.70044	260.73251	746.48547	-678.07770	138.45685	575.16553				-632.91150	-84.52339	871.20813	-775.64771	76.95398	1050.48975	
427	8.520	-753.96289	84.02547	1838.31335	-664.66302	201.39757	534.04895	-673.63818	173.12549	157.36678	-669.69745	53.12189	161.21391	-564.70166	-11.33347	802.15405	-683.84259	268.06747	1545.77026	-712.90320	243.17870	644.99420	-716.94269	241.22650	578.62775	-758.68506	251.97556	505.59930	-517.56818	-73.21305	143.14317	-685.87073	-90.11273	1537.19995	-595.79004	24.97441	168.97646	-567.17688	207.15973	814.17627	-710.43701	152.76202	216.54811	-794.41455	178.62784	183.56425	-765.66772	227.26654	205.97003	-590.16876	218.84036	173.26314	-882.37628	296.02225	144.68523	-554.17334	256.39310	164.30066	-651.81952	9.12310	518.72382	-622.40240	306.23761	158.75066	-527.90778	304.36624	146.72336	-658.48041	297.70993	158.76659	-679.71429	64.84409	576.08929	-790.54608	39.66882	173.39980	-748.25568	-51.66123	489.40088	-548.99194	-30.28088	163.51860	-756.84064	-20.29264	206.54010	-875.85034	-78.68372	141.27127	-714.30530	68.72390	219.01736	-659.41425	-71.25154	758.02124	-690.30310	-45.02277	618.40045	-701.50446	-41.50265	568.49036	-585.52039	87.70052	1353.28955	-607.04474	-76.36465	156.90822	-649.13855	-68.85532	160.61186	-566.43878	-18.53753	1054.34265	-585.33093	230.75497	1067.48755	-670.38245	272.86456	876.01343	-681.26331	260.83075	746.03937	-677.20068	138.75044	574.86572				-632.13165	-84.41142	871.18817	-774.71008	76.85950	1050.34924	
428	8.540	-754.72852	84.17665	1838.13416	-664.37299	201.22981	534.34857	-673.53253	172.86453	157.88129	-669.69745	53.12189	161.21391	-564.40833	-11.04956	802.03491	-684.27673	268.05734	1545.46240	-712.29462	243.53131	644.99768	-716.81671	241.46443	578.54987	-758.64978	252.23277	505.62878	-517.51001	-73.05743	143.18465	-686.52838	-90.11589	1537.06470	-595.90112	25.14319	169.01817	-566.29694	207.31647	813.93390	-710.41803	152.74146	216.54182	-794.50507	178.59845	183.66872	-765.86328	227.38676	206.07108	-589.99384	218.80911	173.22653	-882.42035	296.20520	144.81044	-554.22388	256.42316	164.33023	-651.35376	9.40039	518.82397	-622.42322	306.28754	158.70030	-527.90320	304.06342	146.53278	-658.40973	297.82526	158.88948	-678.97980	64.72668	575.95538	-790.58398	39.81059	173.68990	-748.06909	-51.54475	489.42276	-548.91919	-30.38068	163.54044	-756.67047	-20.04264	206.29854	-875.87335	-78.57735	141.34627	-714.30530	68.72390	219.01736	-658.84735	-70.99310	757.77606	-689.96136	-44.71038	618.36340	-700.85748	-41.58487	568.79327	-586.00818	87.89254	1353.13770	-606.94055	-76.32961	156.74745	-649.11353	-68.67187	160.52948	-565.45819	-18.43576	1054.29114	-584.82037	231.07587	1067.23950	-669.98157	272.52090	875.34821	-680.64667	261.00677	746.05243	-676.70642	138.93222	574.92529				-631.34161	-84.65622	871.14294	-773.98468	76.96767	1050.21790	
429	8.560	-755.38965	84.45614	1837.90039	-663.99078	201.41101	534.31085	-673.41559	172.58813	157.93996	-669.69745	53.12189	161.21391	-563.95673	-11.02096	801.99017	-685.08813	268.43845	1545.19641	-712.22345	243.34512	644.84265	-716.68610	241.48518	578.73944	-758.49487	252.25256	505.57056	-517.51001	-73.05743	143.18465	-687.06616	-90.03416	1536.89734	-596.14722	25.09902	168.61641	-566.23730	207.22713	813.57336	-710.33679	152.69942	216.49115	-794.40338	178.64319	183.80037	-765.66772	227.26654	205.97003	-590.04968	218.82819	173.24489	-882.49835	296.27173	144.77898	-554.22333	256.52957	164.18684	-650.84882	9.21631	518.58032	-622.36493	306.40155	158.75923	-527.91150	303.97452	146.55840	-658.43237	297.74738	158.85712	-678.68475	64.81896	575.62488	-790.58972	39.71086	173.84596	-747.75476	-51.49334	489.34845	-548.90546	-30.43275	163.52829	-756.85748	-20.12454	206.64870	-875.96130	-78.84709	141.39201	-714.30530	68.72390	219.01736	-658.19427	-71.20644	757.85278	-689.25635	-44.27033	618.05194	-700.59167	-41.78723	568.84631	-586.17328	88.36799	1353.10156	-607.25281	-76.55445	156.53323	-649.03418	-68.64575	160.58788	-565.11713	-18.58909	1054.30151	-584.03906	231.33566	1067.03564	-669.35272	272.86209	875.32532	-680.20630	260.94031	745.91400	-676.56671	138.78575	575.12225				-630.85052	-84.55118	871.16388	-773.44653	77.28543	1050.23340	
430	8.580	-755.97522	84.56971	1837.71594	-663.67474	201.23114	534.12048	-673.41559	172.58813	157.93996	-669.74841	53.08056	161.39058	-563.38922	-11.06062	802.06012	-685.38287	268.56592	1545.06885	-711.92188	243.47606	644.55859	-716.45569	241.30838	578.48492	-758.34857	252.36137	505.76410	-517.51001	-73.05743	143.18465	-687.28619	-89.50509	1536.33911	-596.26392	25.17201	168.59387	-566.42621	206.80856	813.12256	-710.62585	152.64975	216.39746	-794.53589	178.45705	183.70575	-765.83771	227.17082	206.01805	-589.96783	218.99829	173.06561	-882.50867	296.15338	144.64825	-554.22125	256.51450	164.34879	-650.62585	9.26530	518.60785	-622.40240	306.23761	158.75066	-527.91608	304.27734	146.74899	-658.53815	297.70328	158.68806	-678.32697	64.85500	575.70032	-790.68701	39.77789	173.67264	-747.50409	-51.32983	489.30707	-548.89648	-30.47348	163.67357	-756.90680	-19.82932	206.47285	-875.86865	-78.72662	141.20197	-714.23529	68.83229	219.05212	-657.82471	-71.11880	757.91498	-688.95123	-44.46831	618.17505	-700.24677	-41.01545	568.51599	-586.31250	88.63917	1352.99670	-607.09875	-76.55997	156.72250	-649.09924	-68.67044	160.54253	-564.56635	-18.26570	1054.41077	-583.42688	231.21239	1066.89258	-668.37433	273.20309	875.66223	-679.97943	260.85336	745.90167	-676.39514	138.78265	574.91010				-630.24371	-84.54271	871.27545	-772.77936	77.54391	1049.84888	
